<svg width="476" height="214" viewBox="0 0 476 214" fill="none" xmlns="http://www.w3.org/2000/svg">
<path d="M281.197 90.2392L239.471 143.486L238.403 144.848L237.335 143.486L195.605 90.2393C190.74 84.0375 184.358 79.1713 177.067 76.107L3.79118 3.36589L21.2358 40.8191L163.785 100.66L164.616 101.009V101.908V117.296V119.335L162.734 118.545L31.8426 63.5966L49.2873 101.05L163.785 149.113L164.616 149.461V150.362V165.75V167.788L162.734 166.999L59.9003 123.827L77.3499 161.28L163.785 197.572L195.56 210.909V144.974V141.046L197.983 144.138L238.403 195.704L278.829 144.138L281.252 141.046V144.974V210.915L313.028 197.578L399.462 161.286L416.912 123.833L314.079 167.004L312.196 167.794V165.755V150.367V149.467L313.028 149.119L427.525 101.055L444.969 63.6019L314.072 118.545L312.191 119.335V117.296V101.908V101.009L313.021 100.66L455.571 40.8191L473.015 3.36584L299.734 76.1073C292.442 79.166 286.061 84.0318 281.197 90.2392ZM281.197 90.2392L280.129 89.4044" stroke="url(#paint0_linear_1_855)" stroke-width="3"/>
<defs>
<linearGradient id="paint0_linear_1_855" x1="238.403" y1="0.75907" x2="238.403" y2="212.953" gradientUnits="userSpaceOnUse">
<stop stop-color="#00DC8D"/>
<stop offset="1" stop-color="#00764B"/>
</linearGradient>
</defs>
</svg>
